<svg width="231" height="143" viewBox="0 0 231 143" fill="none" xmlns="http://www.w3.org/2000/svg">
<rect width="231" height="143" rx="13" fill="#420E13"/>
<path d="M92.799 18.224C92.099 18.224 91.4176 18.0513 90.755 17.706C90.0923 17.3513 89.5416 16.8753 89.103 16.278L89.957 15.522C90.293 16.054 90.7223 16.4787 91.245 16.796C91.7676 17.104 92.3323 17.258 92.939 17.258C93.6016 17.258 94.1056 17.1133 94.451 16.824C94.7963 16.5253 94.969 16.124 94.969 15.62C94.969 15.0693 94.7823 14.6493 94.409 14.36C94.045 14.0613 93.4616 13.8 92.659 13.576C90.643 13.0813 89.635 12.1667 89.635 10.832C89.635 10.0013 89.9056 9.362 90.447 8.914C90.9883 8.466 91.7396 8.242 92.701 8.242C93.401 8.242 94.0263 8.37267 94.577 8.634C95.137 8.89533 95.6363 9.29667 96.075 9.838L95.249 10.538C94.913 10.0807 94.5443 9.74467 94.143 9.53C93.7416 9.306 93.261 9.194 92.701 9.194C92.113 9.194 91.6323 9.334 91.259 9.614C90.8856 9.88467 90.699 10.258 90.699 10.734C90.699 11.2193 90.8716 11.6067 91.217 11.896C91.5623 12.176 92.1456 12.414 92.967 12.61C93.9376 12.8713 94.689 13.2307 95.221 13.688C95.7623 14.1453 96.033 14.7893 96.033 15.62C96.033 16.1333 95.9023 16.586 95.641 16.978C95.3796 17.37 95.0016 17.678 94.507 17.902C94.0216 18.1167 93.4523 18.224 92.799 18.224ZM97.4331 18V17.076H98.3571V9.376H97.4331V8.452H100.331V9.376H99.4071V17.076H100.331V18H97.4331ZM105.404 18.224C104.602 18.224 103.906 18.028 103.318 17.636C102.74 17.2347 102.292 16.6653 101.974 15.928C101.666 15.1813 101.512 14.29 101.512 13.254C101.512 12.2087 101.666 11.3127 101.974 10.566C102.292 9.81 102.74 9.236 103.318 8.844C103.906 8.44267 104.602 8.242 105.404 8.242C106.142 8.242 106.776 8.41 107.308 8.746C107.85 9.07267 108.312 9.558 108.694 10.202L107.868 10.79C107.28 9.726 106.459 9.194 105.404 9.194C104.527 9.194 103.841 9.55333 103.346 10.272C102.861 10.9813 102.618 11.9707 102.618 13.24C102.618 14.5 102.866 15.4893 103.36 16.208C103.855 16.9173 104.536 17.272 105.404 17.272C105.89 17.272 106.324 17.1553 106.706 16.922C107.098 16.6887 107.406 16.3433 107.63 15.886C107.854 15.4287 107.966 14.8687 107.966 14.206H105.712V13.338H109.002V14.206C109.002 15.074 108.848 15.8113 108.54 16.418C108.232 17.0153 107.803 17.468 107.252 17.776C106.711 18.0747 106.095 18.224 105.404 18.224ZM110.717 18V8.452H111.837L116.695 16.418V8.452H117.745V18H116.625L111.767 10.062V18H110.717ZM125.556 18V17.076H126.48V9.376H125.556V8.452H128.454V9.376H127.53V17.076H128.454V18H125.556ZM130.349 18V8.452H131.469L136.327 16.418V8.452H137.377V18H136.257L131.399 10.062V18H130.349Z" fill="#852F31"/>
<path d="M90.755 17.706L90.519 18.1469L90.5239 18.1494L90.755 17.706ZM89.103 16.278L88.7716 15.9036L88.4298 16.2061L88.7 16.574L89.103 16.278ZM89.957 15.522L90.3797 15.255L90.0658 14.7579L89.6256 15.1476L89.957 15.522ZM91.245 16.796L90.9855 17.2234L90.9911 17.2268L91.245 16.796ZM94.451 16.824L94.7721 17.2073L94.7781 17.2022L94.451 16.824ZM94.409 14.36L94.0917 14.7467L94.1027 14.7552L94.409 14.36ZM92.659 13.576L92.7934 13.0944L92.7858 13.0923L92.7781 13.0904L92.659 13.576ZM90.447 8.914L90.1282 8.5288V8.5288L90.447 8.914ZM94.577 8.634L94.3626 9.08572L94.3655 9.08709L94.577 8.634ZM96.075 9.838L96.3982 10.2194L96.7714 9.90322L96.4634 9.52321L96.075 9.838ZM95.249 10.538L94.846 10.834L95.1634 11.266L95.5722 10.9194L95.249 10.538ZM94.143 9.53L93.8993 9.96667L93.9072 9.97089L94.143 9.53ZM91.259 9.614L91.5525 10.0189L91.559 10.014L91.259 9.614ZM91.217 11.896L90.8958 12.2793L90.9021 12.2844L91.217 11.896ZM92.967 12.61L93.097 12.1272L93.09 12.1253L93.083 12.1237L92.967 12.61ZM95.221 13.688L94.895 14.0672L94.8983 14.0699L95.221 13.688ZM95.641 16.978L96.057 17.2554L95.641 16.978ZM94.507 17.902L94.7092 18.3593L94.7132 18.3575L94.507 17.902ZM92.799 17.724C92.1848 17.724 91.5823 17.5733 90.986 17.2626L90.5239 18.1494C91.253 18.5293 92.0131 18.724 92.799 18.724V17.724ZM90.9909 17.2652C90.3931 16.9452 89.8998 16.5183 89.506 15.982L88.7 16.574C89.1835 17.2323 89.7915 17.7575 90.519 18.1468L90.9909 17.2652ZM89.4344 16.6524L90.2884 15.8964L89.6256 15.1476L88.7716 15.9036L89.4344 16.6524ZM89.5342 15.789C89.9103 16.3844 90.3948 16.8647 90.9855 17.2234L91.5045 16.3686C91.0498 16.0926 90.6757 15.7236 90.3797 15.255L89.5342 15.789ZM90.9911 17.2268C91.5907 17.5801 92.243 17.758 92.939 17.758V16.758C92.4216 16.758 91.9446 16.6279 91.4988 16.3652L90.9911 17.2268ZM92.939 17.758C93.6654 17.758 94.3027 17.6005 94.7721 17.2073L94.1299 16.4407C93.9085 16.6262 93.5379 16.758 92.939 16.758V17.758ZM94.7781 17.2022C95.2454 16.798 95.469 16.2522 95.469 15.62H94.469C94.469 15.9958 94.3472 16.2527 94.1239 16.4458L94.7781 17.2022ZM95.469 15.62C95.469 14.9436 95.232 14.3652 94.7153 13.9648L94.1027 14.7552C94.3327 14.9334 94.469 15.195 94.469 15.62H95.469ZM94.7261 13.9735C94.282 13.609 93.6192 13.3249 92.7934 13.0944L92.5246 14.0576C93.304 14.2751 93.808 14.5136 94.0918 14.7465L94.7261 13.9735ZM92.7781 13.0904C91.8121 12.8534 91.1454 12.5284 90.727 12.1487C90.3251 11.784 90.135 11.3551 90.135 10.832H89.135C89.135 11.6435 89.4489 12.3393 90.055 12.8893C90.6446 13.4243 91.4899 13.804 92.5398 14.0616L92.7781 13.0904ZM90.135 10.832C90.135 10.1202 90.3605 9.63455 90.7658 9.2992L90.1282 8.5288C89.4507 9.08945 89.135 9.88247 89.135 10.832H90.135ZM90.7658 9.2992C91.1893 8.94869 91.8133 8.742 92.701 8.742V7.742C91.6659 7.742 90.7873 7.98331 90.1282 8.5288L90.7658 9.2992ZM92.701 8.742C93.3378 8.742 93.8882 8.86057 94.3626 9.08571L94.7913 8.18229C94.1644 7.88476 93.4641 7.742 92.701 7.742V8.742ZM94.3655 9.08709C94.8485 9.31247 95.2895 9.66283 95.6865 10.1528L96.4634 9.52321C95.9832 8.93051 95.4255 8.47819 94.7884 8.18091L94.3655 9.08709ZM95.7517 9.45655L94.9257 10.1566L95.5722 10.9194L96.3982 10.2194L95.7517 9.45655ZM95.6519 10.242C95.2824 9.73895 94.8601 9.34657 94.3788 9.08911L93.9072 9.97089C94.2285 10.1428 94.5436 10.4224 94.846 10.834L95.6519 10.242ZM94.3867 9.0934C93.8962 8.81965 93.3278 8.694 92.701 8.694V9.694C93.1942 9.694 93.5871 9.79235 93.8993 9.9666L94.3867 9.0934ZM92.701 8.694C92.0333 8.694 91.4392 8.85386 90.959 9.214L91.559 10.014C91.8255 9.81414 92.1927 9.694 92.701 9.694V8.694ZM90.9655 9.20919C90.4576 9.57744 90.199 10.1039 90.199 10.734H91.199C91.199 10.4121 91.3137 10.1919 91.5525 10.0188L90.9655 9.20919ZM90.199 10.734C90.199 11.3542 90.4275 11.8869 90.8959 12.2793L91.5381 11.5127C91.3158 11.3265 91.199 11.0844 91.199 10.734H90.199ZM90.9021 12.2844C91.3371 12.6371 92.0108 12.8959 92.8509 13.0963L93.083 12.1237C92.2805 11.9321 91.7875 11.7149 91.5319 11.5076L90.9021 12.2844ZM92.837 13.0928C93.7645 13.3425 94.4389 13.675 94.895 14.0672L95.5469 13.3088C94.9391 12.7863 94.1108 12.4002 93.097 12.1272L92.837 13.0928ZM94.8983 14.0699C95.3074 14.4155 95.533 14.9084 95.533 15.62H96.533C96.533 14.6702 96.2173 13.8751 95.5437 13.3061L94.8983 14.0699ZM95.533 15.62C95.533 16.0439 95.4266 16.3981 95.225 16.7007L96.057 17.2554C96.378 16.7739 96.533 16.2228 96.533 15.62H95.533ZM95.225 16.7006C95.023 17.0035 94.7235 17.2551 94.3007 17.4465L94.7132 18.3575C95.2798 18.1009 95.7363 17.7365 96.057 17.2554L95.225 16.7006ZM94.3047 17.4447C93.896 17.6255 93.3983 17.724 92.799 17.724V18.724C93.5063 18.724 94.1473 18.6078 94.7092 18.3593L94.3047 17.4447ZM97.4331 18H96.9331V18.5H97.4331V18ZM97.4331 17.076V16.576H96.9331V17.076H97.4331ZM98.3571 17.076V17.576H98.8571V17.076H98.3571ZM98.3571 9.376H98.8571V8.876H98.3571V9.376ZM97.4331 9.376H96.9331V9.876H97.4331V9.376ZM97.4331 8.452V7.952H96.9331V8.452H97.4331ZM100.331 8.452H100.831V7.952H100.331V8.452ZM100.331 9.376V9.876H100.831V9.376H100.331ZM99.4071 9.376V8.876H98.9071V9.376H99.4071ZM99.4071 17.076H98.9071V17.576H99.4071V17.076ZM100.331 17.076H100.831V16.576H100.331V17.076ZM100.331 18V18.5H100.831V18H100.331ZM97.9331 18V17.076H96.9331V18H97.9331ZM97.4331 17.576H98.3571V16.576H97.4331V17.576ZM98.8571 17.076V9.376H97.8571V17.076H98.8571ZM98.3571 8.876H97.4331V9.876H98.3571V8.876ZM97.9331 9.376V8.452H96.9331V9.376H97.9331ZM97.4331 8.952H100.331V7.952H97.4331V8.952ZM99.8311 8.452V9.376H100.831V8.452H99.8311ZM100.331 8.876H99.4071V9.876H100.331V8.876ZM98.9071 9.376V17.076H99.9071V9.376H98.9071ZM99.4071 17.576H100.331V16.576H99.4071V17.576ZM99.8311 17.076V18H100.831V17.076H99.8311ZM100.331 17.5H97.4331V18.5H100.331V17.5ZM103.318 17.636L103.033 18.0469L103.041 18.052L103.318 17.636ZM101.974 15.928L101.512 16.1187L101.515 16.1257L101.974 15.928ZM101.974 10.566L101.513 10.3725L101.512 10.3753L101.974 10.566ZM103.318 8.844L103.599 9.25796L103.6 9.25697L103.318 8.844ZM107.308 8.746L107.041 9.16883L107.05 9.17409L107.308 8.746ZM108.694 10.202L108.984 10.6093L109.359 10.3424L109.124 9.94659L108.694 10.202ZM107.868 10.79L107.431 11.0318L107.702 11.5223L108.158 11.1973L107.868 10.79ZM103.346 10.272L102.935 9.98851L102.934 9.98966L103.346 10.272ZM103.36 16.208L102.949 16.4915L102.95 16.494L103.36 16.208ZM106.706 16.922L106.451 16.4923L106.446 16.4951L106.706 16.922ZM107.63 15.886L107.181 15.6661L107.63 15.886ZM107.966 14.206H108.466V13.706H107.966V14.206ZM105.712 14.206H105.212V14.706H105.712V14.206ZM105.712 13.338V12.838H105.212V13.338H105.712ZM109.002 13.338H109.502V12.838H109.002V13.338ZM108.54 16.418L108.985 16.6471L108.986 16.6443L108.54 16.418ZM107.252 17.776L107.494 18.2138L107.497 18.2124L107.252 17.776ZM105.404 17.724C104.687 17.724 104.091 17.55 103.596 17.22L103.041 18.052C103.722 18.506 104.517 18.724 105.404 18.724V17.724ZM103.603 17.2251C103.112 16.8843 102.719 16.394 102.434 15.7303L101.515 16.1257C101.864 16.9367 102.368 17.585 103.033 18.0469L103.603 17.2251ZM102.437 15.7373C102.16 15.0656 102.012 14.2423 102.012 13.254H101.012C101.012 14.3377 101.173 15.2971 101.512 16.1187L102.437 15.7373ZM102.012 13.254C102.012 12.2557 102.16 11.4279 102.437 10.7567L101.512 10.3753C101.173 11.1974 101.012 12.1616 101.012 13.254H102.012ZM102.435 10.7595C102.722 10.0772 103.114 9.58669 103.599 9.25796L103.038 8.43004C102.366 8.88531 101.862 9.54282 101.513 10.3725L102.435 10.7595ZM103.6 9.25697C104.095 8.9194 104.689 8.742 105.404 8.742V7.742C104.514 7.742 103.718 7.96594 103.037 8.43102L103.6 9.25697ZM105.404 8.742C106.064 8.742 106.602 8.89136 107.041 9.16874L107.575 8.32326C106.951 7.92864 106.22 7.742 105.404 7.742V8.742ZM107.05 9.17409C107.509 9.45099 107.916 9.87115 108.265 10.4574L109.124 9.94659C108.707 9.24485 108.191 8.69434 107.567 8.31791L107.05 9.17409ZM108.404 9.79467L107.578 10.3827L108.158 11.1973L108.984 10.6093L108.404 9.79467ZM108.306 10.5482C107.646 9.3542 106.672 8.694 105.404 8.694V9.694C106.246 9.694 106.915 10.0978 107.431 11.0318L108.306 10.5482ZM105.404 8.694C104.364 8.694 103.523 9.13339 102.935 9.98851L103.758 10.5555C104.159 9.97328 104.691 9.694 105.404 9.694V8.694ZM102.934 9.98966C102.37 10.8131 102.118 11.9154 102.118 13.24H103.118C103.118 12.026 103.352 11.1496 103.759 10.5543L102.934 9.98966ZM102.118 13.24C102.118 14.5583 102.376 15.6599 102.949 16.4915L103.772 15.9245C103.355 15.3187 103.118 14.4417 103.118 13.24H102.118ZM102.95 16.494C103.539 17.338 104.374 17.772 105.404 17.772V16.772C104.699 16.772 104.171 16.4966 103.771 15.922L102.95 16.494ZM105.404 17.772C105.974 17.772 106.499 17.634 106.967 17.3489L106.446 16.4951C106.148 16.6767 105.806 16.772 105.404 16.772V17.772ZM106.962 17.3516C107.447 17.063 107.818 16.64 108.079 16.1059L107.181 15.6661C106.995 16.0467 106.75 16.3143 106.451 16.4924L106.962 17.3516ZM108.079 16.1059C108.346 15.5627 108.466 14.9228 108.466 14.206H107.466C107.466 14.8145 107.363 15.2946 107.181 15.6661L108.079 16.1059ZM107.966 13.706H105.712V14.706H107.966V13.706ZM106.212 14.206V13.338H105.212V14.206H106.212ZM105.712 13.838H109.002V12.838H105.712V13.838ZM108.502 13.338V14.206H109.502V13.338H108.502ZM108.502 14.206C108.502 15.0164 108.359 15.6718 108.095 16.1917L108.986 16.6443C109.338 15.9509 109.502 15.1316 109.502 14.206H108.502ZM108.096 16.1889C107.83 16.7049 107.468 17.0827 107.008 17.3396L107.497 18.2124C108.139 17.8533 108.635 17.3258 108.985 16.6471L108.096 16.1889ZM107.011 17.3382C106.552 17.5915 106.021 17.724 105.404 17.724V18.724C106.17 18.724 106.87 18.5579 107.494 18.2138L107.011 17.3382ZM110.717 18H110.217V18.5H110.717V18ZM110.717 8.452V7.952H110.217V8.452H110.717ZM111.837 8.452L112.264 8.19167L112.117 7.952H111.837V8.452ZM116.695 16.418L116.268 16.6783L117.195 18.1982V16.418H116.695ZM116.695 8.452V7.952H116.195V8.452H116.695ZM117.745 8.452H118.245V7.952H117.745V8.452ZM117.745 18V18.5H118.245V18H117.745ZM116.625 18L116.198 18.261L116.344 18.5H116.625V18ZM111.767 10.062L112.193 9.801L111.267 8.28714V10.062H111.767ZM111.767 18V18.5H112.267V18H111.767ZM111.217 18V8.452H110.217V18H111.217ZM110.717 8.952H111.837V7.952H110.717V8.952ZM111.41 8.71233L116.268 16.6783L117.122 16.1577L112.264 8.19167L111.41 8.71233ZM117.195 16.418V8.452H116.195V16.418H117.195ZM116.695 8.952H117.745V7.952H116.695V8.952ZM117.245 8.452V18H118.245V8.452H117.245ZM117.745 17.5H116.625V18.5H117.745V17.5ZM117.051 17.739L112.193 9.801L111.34 10.323L116.198 18.261L117.051 17.739ZM111.267 10.062V18H112.267V10.062H111.267ZM111.767 17.5H110.717V18.5H111.767V17.5ZM125.556 18H125.056V18.5H125.556V18ZM125.556 17.076V16.576H125.056V17.076H125.556ZM126.48 17.076V17.576H126.98V17.076H126.48ZM126.48 9.376H126.98V8.876H126.48V9.376ZM125.556 9.376H125.056V9.876H125.556V9.376ZM125.556 8.452V7.952H125.056V8.452H125.556ZM128.454 8.452H128.954V7.952H128.454V8.452ZM128.454 9.376V9.876H128.954V9.376H128.454ZM127.53 9.376V8.876H127.03V9.376H127.53ZM127.53 17.076H127.03V17.576H127.53V17.076ZM128.454 17.076H128.954V16.576H128.454V17.076ZM128.454 18V18.5H128.954V18H128.454ZM126.056 18V17.076H125.056V18H126.056ZM125.556 17.576H126.48V16.576H125.556V17.576ZM126.98 17.076V9.376H125.98V17.076H126.98ZM126.48 8.876H125.556V9.876H126.48V8.876ZM126.056 9.376V8.452H125.056V9.376H126.056ZM125.556 8.952H128.454V7.952H125.556V8.952ZM127.954 8.452V9.376H128.954V8.452H127.954ZM128.454 8.876H127.53V9.876H128.454V8.876ZM127.03 9.376V17.076H128.03V9.376H127.03ZM127.53 17.576H128.454V16.576H127.53V17.576ZM127.954 17.076V18H128.954V17.076H127.954ZM128.454 17.5H125.556V18.5H128.454V17.5ZM130.349 18H129.849V18.5H130.349V18ZM130.349 8.452V7.952H129.849V8.452H130.349ZM131.469 8.452L131.896 8.19167L131.75 7.952H131.469V8.452ZM136.327 16.418L135.901 16.6783L136.827 18.1982V16.418H136.327ZM136.327 8.452V7.952H135.827V8.452H136.327ZM137.377 8.452H137.877V7.952H137.377V8.452ZM137.377 18V18.5H137.877V18H137.377ZM136.257 18L135.831 18.261L135.977 18.5H136.257V18ZM131.399 10.062L131.826 9.801L130.899 8.28714V10.062H131.399ZM131.399 18V18.5H131.899V18H131.399ZM130.849 18V8.452H129.849V18H130.849ZM130.349 8.952H131.469V7.952H130.349V8.952ZM131.043 8.71233L135.901 16.6783L136.754 16.1577L131.896 8.19167L131.043 8.71233ZM136.827 16.418V8.452H135.827V16.418H136.827ZM136.327 8.952H137.377V7.952H136.327V8.952ZM136.877 8.452V18H137.877V8.452H136.877ZM137.377 17.5H136.257V18.5H137.377V17.5ZM136.684 17.739L131.826 9.801L130.973 10.323L135.831 18.261L136.684 17.739ZM130.899 10.062V18H131.899V10.062H130.899ZM131.399 17.5H130.349V18.5H131.399V17.5Z" fill="#852F31"/>
<rect x="24" y="31" width="185" height="22" rx="10" fill="#CE5252" fill-opacity="0.48"/>
<path d="M35.027 47V38.134H36.002V46.194H39.993V47H35.027ZM44.1861 47.208C43.4494 47.208 42.7908 47.013 42.2101 46.623C41.6381 46.2243 41.1874 45.674 40.8581 44.972C40.5374 44.27 40.3771 43.4727 40.3771 42.58C40.3771 41.6873 40.5374 40.89 40.8581 40.188C41.1874 39.4773 41.6381 38.927 42.2101 38.537C42.7908 38.1383 43.4494 37.939 44.1861 37.939C44.9228 37.939 45.5771 38.1383 46.1491 38.537C46.7298 38.927 47.1804 39.4773 47.5011 40.188C47.8304 40.89 47.9951 41.6917 47.9951 42.593C47.9951 43.4857 47.8304 44.283 47.5011 44.985C47.1804 45.6783 46.7298 46.2243 46.1491 46.623C45.5771 47.013 44.9228 47.208 44.1861 47.208ZM44.1861 46.311C44.7234 46.311 45.2044 46.155 45.6291 45.843C46.0624 45.5223 46.4004 45.0803 46.6431 44.517C46.8858 43.945 47.0071 43.2993 47.0071 42.58C47.0071 41.8607 46.8858 41.215 46.6431 40.643C46.4004 40.071 46.0624 39.6247 45.6291 39.304C45.2044 38.9833 44.7234 38.823 44.1861 38.823C43.6488 38.823 43.1634 38.9833 42.7301 39.304C42.3054 39.6247 41.9718 40.071 41.7291 40.643C41.4864 41.215 41.3651 41.8607 41.3651 42.58C41.3651 43.2993 41.4864 43.945 41.7291 44.517C41.9718 45.0803 42.3054 45.5223 42.7301 45.843C43.1634 46.155 43.6488 46.311 44.1861 46.311ZM52.7049 47.208C51.9595 47.208 51.3139 47.026 50.7679 46.662C50.2305 46.2893 49.8145 45.7607 49.5199 45.076C49.2339 44.3827 49.0909 43.555 49.0909 42.593C49.0909 41.6223 49.2339 40.7903 49.5199 40.097C49.8145 39.395 50.2305 38.862 50.7679 38.498C51.3139 38.1253 51.9595 37.939 52.7049 37.939C53.3895 37.939 53.9789 38.095 54.4729 38.407C54.9755 38.7103 55.4045 39.161 55.7599 39.759L54.9929 40.305C54.4469 39.317 53.6842 38.823 52.7049 38.823C51.8902 38.823 51.2532 39.1567 50.7939 39.824C50.3432 40.4827 50.1179 41.4013 50.1179 42.58C50.1179 43.75 50.3475 44.6687 50.8069 45.336C51.2662 45.9947 51.8989 46.324 52.7049 46.324C53.1555 46.324 53.5585 46.2157 53.9139 45.999C54.2779 45.7823 54.5639 45.4617 54.7719 45.037C54.9799 44.6123 55.0839 44.0923 55.0839 43.477H52.9909V42.671H56.0459V43.477C56.0459 44.283 55.9029 44.9677 55.6169 45.531C55.3309 46.0857 54.9322 46.506 54.4209 46.792C53.9182 47.0693 53.3462 47.208 52.7049 47.208ZM57.3127 47V46.142H58.1707V38.992H57.3127V38.134H60.0037V38.992H59.1457V46.142H60.0037V47H57.3127ZM61.7636 47V38.134H62.8036L67.3146 45.531V38.134H68.2896V47H67.2496L62.7386 39.629V47H61.7636Z" fill="#E78484"/>
<rect x="24" y="61" width="185" height="22" rx="10" fill="#CE5252" fill-opacity="0.48"/>
<path d="M35.04 68.134H38.004C38.8013 68.134 39.4383 68.3767 39.915 68.862C40.3917 69.3473 40.63 70.019 40.63 70.877C40.63 71.7263 40.3787 72.3937 39.876 72.879C39.382 73.3643 38.7233 73.607 37.9 73.607H36.015V77H35.04V68.134ZM37.874 72.801C38.4547 72.801 38.8967 72.6407 39.2 72.32C39.5033 71.9907 39.655 71.5097 39.655 70.877C39.655 70.2443 39.5033 69.7633 39.2 69.434C38.8967 69.1047 38.4547 68.94 37.874 68.94H36.015V72.801H37.874ZM46.9755 77L46.0655 74.517H42.3865L41.5675 77H40.5925L43.7385 68.134H44.6485L47.8855 77H46.9755ZM42.6855 73.711H45.7665L44.1805 69.408L42.6855 73.711ZM52.032 77.208C51.382 77.208 50.7493 77.0477 50.134 76.727C49.5187 76.3977 49.0073 75.9557 48.6 75.401L49.393 74.699C49.705 75.193 50.1037 75.5873 50.589 75.882C51.0743 76.168 51.5987 76.311 52.162 76.311C52.7773 76.311 53.2453 76.1767 53.566 75.908C53.8867 75.6307 54.047 75.258 54.047 74.79C54.047 74.2787 53.8737 73.8887 53.527 73.62C53.189 73.3427 52.6473 73.1 51.902 72.892C50.03 72.4327 49.094 71.5833 49.094 70.344C49.094 69.5727 49.3453 68.979 49.848 68.563C50.3507 68.147 51.0483 67.939 51.941 67.939C52.591 67.939 53.1717 68.0603 53.683 68.303C54.203 68.5457 54.6667 68.9183 55.074 69.421L54.307 70.071C53.995 69.6463 53.6527 69.3343 53.28 69.135C52.9073 68.927 52.461 68.823 51.941 68.823C51.395 68.823 50.9487 68.953 50.602 69.213C50.2553 69.4643 50.082 69.811 50.082 70.253C50.082 70.7037 50.2423 71.0633 50.563 71.332C50.8837 71.592 51.4253 71.813 52.188 71.995C53.0893 72.2377 53.787 72.5713 54.281 72.996C54.7837 73.4207 55.035 74.0187 55.035 74.79C55.035 75.2667 54.9137 75.687 54.671 76.051C54.4283 76.415 54.0773 76.701 53.618 76.909C53.1673 77.1083 52.6387 77.208 52.032 77.208ZM59.6111 77.208C58.9611 77.208 58.3285 77.0477 57.7131 76.727C57.0978 76.3977 56.5865 75.9557 56.1791 75.401L56.9721 74.699C57.2841 75.193 57.6828 75.5873 58.1681 75.882C58.6535 76.168 59.1778 76.311 59.7411 76.311C60.3565 76.311 60.8245 76.1767 61.1451 75.908C61.4658 75.6307 61.6261 75.258 61.6261 74.79C61.6261 74.2787 61.4528 73.8887 61.1061 73.62C60.7681 73.3427 60.2265 73.1 59.4811 72.892C57.6091 72.4327 56.6731 71.5833 56.6731 70.344C56.6731 69.5727 56.9245 68.979 57.4271 68.563C57.9298 68.147 58.6275 67.939 59.5201 67.939C60.1701 67.939 60.7508 68.0603 61.2621 68.303C61.7821 68.5457 62.2458 68.9183 62.6531 69.421L61.8861 70.071C61.5741 69.6463 61.2318 69.3343 60.8591 69.135C60.4865 68.927 60.0401 68.823 59.5201 68.823C58.9741 68.823 58.5278 68.953 58.1811 69.213C57.8345 69.4643 57.6611 69.811 57.6611 70.253C57.6611 70.7037 57.8215 71.0633 58.1421 71.332C58.4628 71.592 59.0045 71.813 59.7671 71.995C60.6685 72.2377 61.3661 72.5713 61.8601 72.996C62.3628 73.4207 62.6141 74.0187 62.6141 74.79C62.6141 75.2667 62.4928 75.687 62.2501 76.051C62.0075 76.415 61.6565 76.701 61.1971 76.909C60.7465 77.1083 60.2178 77.208 59.6111 77.208ZM73.0532 68.134H73.9762L71.6102 77H70.5962L68.7502 69.876L66.8522 77H65.8512L63.4852 68.134H64.4862L66.3842 75.596L68.3602 68.134H69.1532L71.1422 75.661L73.0532 68.134ZM78.7808 77.208C78.0442 77.208 77.3855 77.013 76.8048 76.623C76.2328 76.2243 75.7822 75.674 75.4528 74.972C75.1322 74.27 74.9718 73.4727 74.9718 72.58C74.9718 71.6873 75.1322 70.89 75.4528 70.188C75.7822 69.4773 76.2328 68.927 76.8048 68.537C77.3855 68.1383 78.0442 67.939 78.7808 67.939C79.5175 67.939 80.1718 68.1383 80.7438 68.537C81.3245 68.927 81.7752 69.4773 82.0958 70.188C82.4252 70.89 82.5898 71.6917 82.5898 72.593C82.5898 73.4857 82.4252 74.283 82.0958 74.985C81.7752 75.6783 81.3245 76.2243 80.7438 76.623C80.1718 77.013 79.5175 77.208 78.7808 77.208ZM78.7808 76.311C79.3182 76.311 79.7992 76.155 80.2238 75.843C80.6572 75.5223 80.9952 75.0803 81.2378 74.517C81.4805 73.945 81.6018 73.2993 81.6018 72.58C81.6018 71.8607 81.4805 71.215 81.2378 70.643C80.9952 70.071 80.6572 69.6247 80.2238 69.304C79.7992 68.9833 79.3182 68.823 78.7808 68.823C78.2435 68.823 77.7582 68.9833 77.3248 69.304C76.9002 69.6247 76.5665 70.071 76.3238 70.643C76.0812 71.215 75.9598 71.8607 75.9598 72.58C75.9598 73.2993 76.0812 73.945 76.3238 74.517C76.5665 75.0803 76.9002 75.5223 77.3248 75.843C77.7582 76.155 78.2435 76.311 78.7808 76.311ZM89.3146 77L87.0656 73.087H85.3106V77H84.3356V68.134H87.2996C87.8369 68.134 88.3093 68.238 88.7166 68.446C89.1239 68.654 89.4359 68.9487 89.6526 69.33C89.8693 69.7027 89.9776 70.1317 89.9776 70.617C89.9776 71.2063 89.7999 71.7133 89.4446 72.138C89.0893 72.554 88.6169 72.8357 88.0276 72.983L90.3416 77H89.3146ZM85.3106 72.281H87.1696C87.7416 72.281 88.1793 72.1293 88.4826 71.826C88.7946 71.5227 88.9506 71.1197 88.9506 70.617C88.9506 70.1143 88.7946 69.7113 88.4826 69.408C88.1793 69.096 87.7416 68.94 87.1696 68.94H85.3106V72.281ZM91.8896 68.134H94.0866C94.9966 68.134 95.7809 68.3117 96.4396 68.667C97.0983 69.0137 97.6009 69.5207 97.9476 70.188C98.2943 70.8553 98.4676 71.6527 98.4676 72.58C98.4676 73.9667 98.0819 75.05 97.3106 75.83C96.5393 76.61 95.4646 77 94.0866 77H91.8896V68.134ZM94.0606 76.116C95.1179 76.116 95.9456 75.8257 96.5436 75.245C97.1416 74.6643 97.4406 73.776 97.4406 72.58C97.4406 71.3753 97.1416 70.4827 96.5436 69.902C95.9456 69.3213 95.1179 69.031 94.0606 69.031H92.8646V76.116H94.0606Z" fill="#E78484"/>
</svg>
